<?xml version="1.0" encoding="UTF-8" standalone="no"?>
<!-- Created with Inkscape (http://www.inkscape.org/) -->

<svg
   xmlns:dc="http://purl.org/dc/elements/1.1/"
   xmlns:cc="http://creativecommons.org/ns#"
   xmlns:rdf="http://www.w3.org/1999/02/22-rdf-syntax-ns#"
   xmlns:svg="http://www.w3.org/2000/svg"
   xmlns="http://www.w3.org/2000/svg"
   xmlns:sodipodi="http://sodipodi.sourceforge.net/DTD/sodipodi-0.dtd"
   xmlns:inkscape="http://www.inkscape.org/namespaces/inkscape"
   width="349.76944"
   height="350.07416"
   viewBox="0 0 92.543162 92.62379"
   version="1.1"
   id="svg8"
   inkscape:version="0.92.2 2405546, 2018-03-11"
   sodipodi:docname="CydiaIcon.svg">
  <defs
     id="defs2" />
  <sodipodi:namedview
     id="base"
     pagecolor="#ffffff"
     bordercolor="#666666"
     borderopacity="1.0"
     inkscape:pageopacity="0.0"
     inkscape:pageshadow="2"
     inkscape:zoom="0.92807765"
     inkscape:cx="64.530139"
     inkscape:cy="186.4007"
     inkscape:document-units="mm"
     inkscape:current-layer="layer1"
     showgrid="false"
     units="px"
     fit-margin-top="0"
     fit-margin-left="0"
     fit-margin-right="0"
     fit-margin-bottom="0"
     inkscape:window-width="1280"
     inkscape:window-height="659"
     inkscape:window-x="0"
     inkscape:window-y="0"
     inkscape:window-maximized="1" />
  <metadata
     id="metadata5">
    <rdf:RDF>
      <cc:Work
         rdf:about="">
        <dc:format>image/svg+xml</dc:format>
        <dc:type
           rdf:resource="http://purl.org/dc/dcmitype/StillImage" />
        <dc:title></dc:title>
      </cc:Work>
    </rdf:RDF>
  </metadata>
  <g
     inkscape:label="Capa 1"
     inkscape:groupmode="layer"
     id="layer1"
     transform="translate(-64.627452,-57.107168)">
    <g
       id="g896"
       transform="translate(37.916637,-42.763124)">
      <path
         id="path875"
         d="m 36.826521,192.11514 c -4.572749,-1.10918 -8.49401,-4.92138 -9.661156,-9.39244 -0.418545,-1.60335 -0.45455,-4.49719 -0.45455,-36.53399 0,-32.03679 0.03601,-34.93063 0.45455,-36.53398 1.198187,-4.58997 5.336625,-8.49381 10.045157,-9.47572 1.973881,-0.411624 69.569868,-0.411624 71.543748,0 4.70853,0.98191 8.84697,4.88575 10.04516,9.47572 0.41854,1.60335 0.45455,4.49719 0.45455,36.53398 0,32.0368 -0.036,34.93064 -0.45455,36.53399 -1.19819,4.58997 -5.33663,8.49381 -10.04516,9.47571 -2.12808,0.44379 -70.079214,0.36512 -71.927749,-0.0833 z"
         style="fill:#5d2e1f;fill-opacity:1;stroke-width:0.26458335"
         inkscape:connector-curvature="0" />
      <path
         id="path873"
         d="m 78.670939,178.34178 c 11.533167,-2.4143 20.920555,-10.65723 24.568411,-21.57315 1.21949,-3.64923 1.60905,-6.17865 1.60905,-10.44762 0,-2.79919 -0.13955,-4.63151 -0.47353,-6.21771 -2.79406,-13.27001 -12.540827,-23.01833 -25.836222,-25.84034 -3.098417,-0.65765 -9.337001,-0.65765 -12.435418,0 -13.295395,2.82201 -23.042158,12.57033 -25.836221,25.84034 -0.651171,3.09264 -0.651171,9.34277 0,12.43541 2.375012,11.27979 9.75416,20.07426 20.331972,24.23165 5.420662,2.13048 12.472263,2.74364 18.071958,1.57142 z"
         style="fill:#ffffff;fill-opacity:1;stroke-width:0.26458335"
         inkscape:connector-curvature="0" />
      <path
         id="path871"
         d="m 66.481261,174.75088 c -10.747603,-2.25885 -19.292465,-10.30931 -22.226489,-20.94047 -0.842704,-3.05345 -1.14537,-8.51565 -0.656951,-11.85597 1.308076,-8.94598 7.091717,-16.97838 15.413969,-21.40713 8.020313,-4.26807 18.597985,-4.26807 26.618297,0 5.542611,2.94954 10.081245,7.59023 12.869038,13.1584 3.612975,7.21635 3.726665,17.11662 0.282162,24.57179 -3.219384,6.96794 -9.290365,12.63168 -16.379701,15.28097 -4.667232,1.74414 -11.028292,2.22058 -15.920325,1.19241 z"
         style="fill:#5d2e1f;fill-opacity:1;stroke-width:0.26458335"
         inkscape:connector-curvature="0" />
      <path
         id="path869"
         d="m 83.301148,164.89451 5.953125,-2.48759 0.07341,-3.74347 c 0.04037,-2.05892 -0.03207,-3.74349 -0.160997,-3.74349 -0.128923,0 -3.866579,1.47205 -8.305901,3.27123 l -8.071493,3.27122 -0.483955,-0.82383 c -0.266176,-0.4531 -0.935972,-1.5382 -1.488435,-2.41132 l -1.00448,-1.5875 -0.0026,6.92706 -0.0026,6.92706 3.770313,-1.55589 c 2.073672,-0.85574 6.449219,-2.6753 9.723438,-4.04348 z"
         style="fill:#ffffff;fill-opacity:1;stroke-width:0.26458335"
         inkscape:connector-curvature="0" />
      <path
         id="path867"
         d="m 67.955314,161.79913 c 0,-5.75192 -0.0863,-8.20208 -0.288902,-8.20208 -0.158895,0 -2.304878,0.66282 -4.768853,1.47293 l -4.479951,1.47294 -1.713439,-1.36343 -1.71344,-1.36342 v 3.59509 3.5951 l 1.372024,0.99175 c 4.552601,3.29078 11.225406,7.96595 11.394123,7.98307 0.109141,0.0111 0.198438,-3.6708 0.198438,-8.18195 z"
         style="fill:#faf9f9;fill-opacity:1;stroke-width:0.26458335"
         inkscape:connector-curvature="0" />
      <path
         id="path865"
         d="m 91.308882,152.03872 c 0.161708,-0.15658 -1.017987,-6.56582 -1.261377,-6.85302 -0.04851,-0.0572 -16.307013,5.96477 -19.512504,7.22727 -0.254661,0.1003 -0.463021,0.27761 -0.463021,0.39402 0,0.18074 2.4838,4.51229 3.584943,6.25186 0.355124,0.56101 0.449228,0.52795 8.904175,-3.12852 4.699892,-2.03254 8.636394,-3.78376 8.747784,-3.89161 z"
         style="fill:#ffffff;fill-opacity:1;stroke-width:0.26458335"
         inkscape:connector-curvature="0" />
      <path
         id="path863"
         d="m 64.483686,153.01106 1.687748,-0.63407 -6.185913,-5.28676 c -3.402254,-2.90771 -6.330601,-5.37617 -6.507441,-5.48547 -0.318513,-0.19685 -5.498809,3.8571 -5.498809,4.30321 0,0.11778 2.429269,2.23822 5.398376,4.71208 l 5.398378,4.49793 2.009956,-0.73643 c 1.105476,-0.40503 2.769444,-1.02175 3.697705,-1.37049 z"
         style="fill:#ffffff;fill-opacity:1;stroke-width:0.26458335"
         inkscape:connector-curvature="0" />
      <path
         id="path861"
         d="m 78.003528,148.04445 c -0.0088,-0.20074 -5.08775,-2.38762 -5.541765,-2.38615 -0.709573,0.002 -8.243168,3.24964 -8.02657,3.45985 0.117057,0.1136 1.022848,0.84976 2.012871,1.63591 l 1.800045,1.42936 4.880685,-2.00152 c 2.684378,-1.10083 4.878007,-2.06269 4.874734,-2.13745 z"
         style="fill:#ffffff;fill-opacity:1;stroke-width:0.26458335"
         inkscape:connector-curvature="0" />
      <path
         id="path859"
         d="m 67.885575,146.27354 3.773905,-1.50267 v -1.40774 c 0,-0.77427 -0.0893,-1.40997 -0.198437,-1.41268 -0.109141,-0.003 -1.95461,0.73701 -4.101042,1.64381 l -3.902604,1.64874 v 1.26661 c 0,0.82948 0.1129,1.2666 0.327136,1.2666 0.179927,0 2.025396,-0.6762 4.101042,-1.50267 z"
         style="fill:#ffffff;fill-opacity:1;stroke-width:0.26458335"
         inkscape:connector-curvature="0" />
      <path
         id="path857"
         d="m 79.383703,145.85798 c -0.06311,-0.9095 -0.134816,-1.67806 -0.15934,-1.7079 -0.02453,-0.0299 -1.379466,-0.64905 -3.010985,-1.37601 l -2.966397,-1.32174 v 1.44215 c 0,0.79318 -0.01386,1.53145 -0.03079,1.64059 -0.02527,0.16289 5.63976,2.89474 6.133087,2.95756 0.08205,0.0105 0.09754,-0.72514 0.03442,-1.63465 z"
         style="fill:#ffffff;fill-opacity:1;stroke-width:0.26458335"
         inkscape:connector-curvature="0" />
      <path
         id="path855"
         d="m 62.38613,145.99028 -0.01294,-1.25677 -3.33706,-2.38125 c -4.398402,-3.1386 -4.099171,-2.98931 -3.997778,-1.99454 0.07063,0.69286 0.655056,1.32961 3.524248,3.83969 1.891771,1.655 3.52888,3.01822 3.638021,3.02937 0.109141,0.0111 0.192617,-0.54528 0.185505,-1.2365 z"
         style="fill:#ffffff;fill-opacity:1;stroke-width:0.26458335"
         inkscape:connector-curvature="0" />
      <path
         id="path853"
         d="m 85.199965,145.59934 3.354025,-1.30955 0.08556,-2.09387 c 0.04706,-1.15162 0.05678,-2.09359 0.02159,-2.09325 -0.03518,2.7e-4 -1.910411,0.92158 -4.167188,2.04719 l -4.103219,2.04656 0.0036,0.93 c 0.0021,0.5115 0.07628,1.20123 0.165092,1.53273 0.19051,0.71111 -0.01582,0.75823 4.64053,-1.05981 z"
         style="fill:#ffffff;fill-opacity:1;stroke-width:0.26458335"
         inkscape:connector-curvature="0" />
      <path
         id="path851"
         d="m 66.979033,142.5899 c 1.919401,-0.81518 3.574568,-1.56072 3.678145,-1.65676 0.194434,-0.18028 -8.220573,-5.59234 -8.695323,-5.59234 -0.521785,0 -6.838072,2.5818 -6.796739,2.77818 0.03793,0.18023 8.024255,5.95307 8.235657,5.95307 0.04864,0 1.658856,-0.66697 3.57826,-1.48215 z"
         style="fill:#ffffff;fill-opacity:1;stroke-width:0.26458335"
         inkscape:connector-curvature="0" />
      <path
         id="path849"
         d="m 84.756356,141.03377 c 1.164167,-0.53774 2.403303,-1.09032 2.753636,-1.22796 0.59069,-0.23208 0.433308,-0.37525 -2.166202,-1.97061 l -2.803168,-1.72035 -4.448385,2.23625 -4.448381,2.23624 0.926041,0.39406 c 0.509323,0.21673 1.92563,0.80798 3.147349,1.31389 l 2.221309,0.91984 1.350566,-0.60183 c 0.742813,-0.331 2.303069,-1.04179 3.467235,-1.57953 z"
         style="fill:#ffffff;fill-opacity:1;stroke-width:0.26458335"
         inkscape:connector-curvature="0" />
      <path
         id="path847"
         d="m 93.862082,137.08983 c -0.183015,-0.17046 -11.338629,-5.71778 -11.498398,-5.71778 -0.08169,0 -0.112535,0.62507 -0.06855,1.38906 l 0.07997,1.38906 3.698211,2.3021 c 3.868169,2.40791 4.371581,2.84644 4.371581,3.80816 0,0.47965 0.317992,0.25578 1.763538,-1.24154 0.969947,-1.00469 1.714088,-1.87277 1.653646,-1.92906 z"
         style="fill:#ffffff;fill-opacity:1;stroke-width:0.26458335"
         inkscape:connector-curvature="0" />
      <path
         id="path845"
         d="m 57.979397,135.54746 4.022791,-1.71917 1.106006,0.75626 c 0.608301,0.41593 1.173848,0.75625 1.256771,0.75625 0.08292,0 0.150765,-0.92778 0.150765,-2.06174 v -2.06173 l 2.257362,-1.01667 c 1.241549,-0.55917 2.217465,-1.05656 2.168702,-1.10533 -0.06855,-0.0685 -7.849463,3.00071 -16.516375,6.51504 l -0.580935,0.23556 0.97781,2.11164 0.97781,2.11163 0.07825,-1.40129 0.07825,-1.40129 z"
         style="fill:#ffffff;fill-opacity:1;stroke-width:0.26458335"
         inkscape:connector-curvature="0" />
      <path
         id="path843"
         d="m 71.8531,136.34951 c -0.146897,-0.36367 -5.968887,-3.52372 -6.152934,-3.33968 -0.05824,0.0583 -0.02114,0.86799 0.08244,1.79942 l 0.188335,1.69352 2.778126,1.66952 2.778125,1.66951 0.23309,-1.57251 c 0.128198,-0.86488 0.169968,-1.72878 0.09282,-1.91978 z"
         style="fill:#ffffff;fill-opacity:1;stroke-width:0.26458335"
         inkscape:connector-curvature="0" />
      <path
         id="path841"
         d="m 77.111982,137.57025 3.807916,-2.00389 v -1.56799 c 0,-1.0889 -0.101053,-1.56175 -0.330729,-1.54756 -0.181902,0.0112 -1.938074,0.81491 -3.902605,1.78594 l -3.571875,1.7655 -0.07823,1.78594 c -0.04303,0.98227 -5.29e-4,1.78594 0.09469,1.78594 0.09511,0 1.886485,-0.90175 3.980839,-2.00388 z"
         style="fill:#ffffff;fill-opacity:1;stroke-width:0.26458335"
         inkscape:connector-curvature="0" />
      <path
         id="path837"
         d="m 76.421893,133.24146 3.571786,-1.80711 -0.925952,-0.38988 c -0.509275,-0.21444 -1.959417,-0.8401 -3.222535,-1.39036 l -2.296581,-1.00048 -3.25967,1.40677 c -1.792819,0.77372 -3.360938,1.49258 -3.484713,1.59748 -0.224343,0.19012 5.278562,3.43066 5.781294,3.40447 0.145521,-0.008 1.871888,-0.82698 3.836371,-1.82089 z"
         style="fill:#ffffff;fill-opacity:1;stroke-width:0.26458335"
         inkscape:connector-curvature="0" />
    </g>
  </g>
</svg>
