<?xml version="1.0" encoding="UTF-8"?>
<svg viewBox="0 0 272 285" xmlns="http://www.w3.org/2000/svg">
<g transform="translate(-64 -58)">
<g transform="translate(64 24)">
<path class="path" fill="#fff" d="m117.13 39.163c11.639-6.884 26.099-6.884 37.738 0l98.909 58.499c11.293 6.6792 18.222 18.832 18.222 31.961v93.754c0 13.129-6.9285 25.282-18.222 31.961l-98.909 58.499c-11.639 6.884-26.099 6.884-37.738 0l-98.909-58.499c-11.293-6.6792-18.222-18.832-18.222-31.961v-93.754c0-13.129 6.9285-25.282 18.222-31.961l98.909-58.499zm126.44 183.73v-12.512c0-1.1916-0.95593-2.1576-2.1351-2.1576-0.38329 0-0.75952 0.10427-1.0892 0.30186l-85.993 51.54c-2.2694 1.3602-3.6608 3.8289-3.6608 6.4952v12.412c0 1.1916 0.95593 2.1576 2.1351 2.1576 0.38268 0 0.75832-0.10393 1.0876-0.30092l85.989-51.438c2.2725-1.3594 3.6663-3.8299 3.6663-6.4985zm-40.753-15.917v-12.664c0-1.2064-0.95254-2.1845-2.1276-2.1845-0.38235 0-0.75763 0.10579-1.0864 0.30625l-45.267 27.602c-2.2593 1.3776-3.6442 3.8758-3.6442 6.5737v12.569c0 1.2064 0.95254 2.1845 2.1276 2.1845 0.38126 0 0.75551-0.10519 1.0836-0.30456l45.26-27.503c2.2648-1.3762 3.6538-3.8776 3.6538-6.5796zm-132.98-11.024l-31.476-18.278c-2.9899-1.7362-6.8376-0.74796-8.5941 2.2072-0.56647 0.95302-0.86514 2.0383-0.86514 3.1436v34.354c0 6.6011 3.5364 12.709 9.2948 16.052l31.476 18.278c2.9899 1.7362 6.8376 0.74796 8.5941-2.2072 0.56647-0.95302 0.86514-2.0383 0.86514-3.1436v-34.354c0-6.6011-3.5364-12.709-9.2948-16.052z"/>
</g>
</g>
</svg>
